<?xml version="1.0" ?><svg enable-background="new 0 0 32 32" version="1.1" viewBox="0 0 32 32" xml:space="preserve" xmlns="http://www.w3.org/2000/svg" xmlns:xlink="http://www.w3.org/1999/xlink"><g id="Outline_Color"><g><g><g><path d="M4,31.5c-1.93,0-3.5-1.57-3.5-3.5V4c0-1.93,1.57-3.5,3.5-3.5h24c1.93,0,3.5,1.57,3.5,3.5v24      c0,1.93-1.57,3.5-3.5,3.5H4z" fill="#FFFFFF"/><path d="M28,1c1.654,0,3,1.346,3,3v24c0,1.654-1.346,3-3,3H4c-1.654,0-3-1.346-3-3V4c0-1.654,1.346-3,3-3H28 M28,0H4      C1.8,0,0,1.8,0,4v24c0,2.2,1.8,4,4,4h24c2.2,0,4-1.8,4-4V4C32,1.8,30.2,0,28,0L28,0z"/></g><path d="M27.437,29.438H4.562c-1.1,0-2-0.9-2-2V4.562c0-1.1,0.9-2,2-2h22.875c1.1,0,2,0.9,2,2v22.875     C29.437,28.538,28.538,29.438,27.437,29.438z"/></g><path d="M20.244,21.615l1.796-1.077v0.98l-6.054,3.927l-5.92-3.955v-0.923l1.771,1.049l0.197,0.116l0.182-0.139    l3.824-2.935l3.823,2.935l0.183,0.139L20.244,21.615z M16.053,10.193l5.822,3.345L16,17.431l-5.839-3.678L16.053,10.193z     M26.163,10.388l-5.998-3.833l-4.124,3.458l-4.031-3.458l-6.172,4.021l4.25,3.233l-4.25,3.233l4.229,2.505l1.944,1.15l4.031-3.093    l4.03,3.093l1.97-1.182l4.123-2.473l-3.936-3.375L26.163,10.388z" fill="#FFFFFF"/></g></g></svg>