<?xml version="1.0" ?><svg enable-background="new 0 0 32 32" version="1.1" viewBox="0 0 32 32" xml:space="preserve" xmlns="http://www.w3.org/2000/svg" xmlns:xlink="http://www.w3.org/1999/xlink"><g id="Outline_Color"><g><g><g><path d="M4,31.5c-1.93,0-3.5-1.57-3.5-3.5V4c0-1.93,1.57-3.5,3.5-3.5h24c1.93,0,3.5,1.57,3.5,3.5v24      c0,1.93-1.57,3.5-3.5,3.5H4z" fill="#FFFFFF"/><path d="M28,1c1.654,0,3,1.346,3,3v24c0,1.654-1.346,3-3,3H4c-1.654,0-3-1.346-3-3V4c0-1.654,1.346-3,3-3H28 M28,0H4      C1.8,0,0,1.8,0,4v24c0,2.2,1.8,4,4,4h24c2.2,0,4-1.8,4-4V4C32,1.8,30.2,0,28,0L28,0z"/></g><path d="M27.438,29.438H4.563c-1.1,0-2-0.9-2-2V4.563c0-1.1,0.9-2,2-2h22.875c1.1,0,2,0.9,2,2v22.875     C29.438,28.538,28.538,29.438,27.438,29.438z"/></g><path d="M24.299,23.921v-6.137c0-3.288-1.755-4.818-4.096-4.818c-1.889,0-2.735,1.039-3.206,1.768v-1.517h-3.558    c0.047,1.005,0,10.704,0,10.704h3.558v-5.978c0-0.319,0.023-0.639,0.117-0.867c0.257-0.639,0.842-1.301,1.825-1.301    c1.288,0,1.803,0.981,1.803,2.42v5.727L24.299,23.921L24.299,23.921z M9.69,11.756c1.24,0,2.013-0.823,2.013-1.85    c-0.023-1.05-0.773-1.849-1.99-1.849S7.701,8.856,7.701,9.906c0,1.028,0.772,1.85,1.967,1.85H9.69z M11.469,23.921V13.217H7.912    v10.704H11.469z" fill="#FFFFFF"/></g></g></svg>