<?xml version="1.0" ?><svg enable-background="new 0 0 32 32" version="1.1" viewBox="0 0 32 32" xml:space="preserve" xmlns="http://www.w3.org/2000/svg" xmlns:xlink="http://www.w3.org/1999/xlink"><g id="Outline_Color"><g><g><g><path d="M4,31.5c-1.93,0-3.5-1.57-3.5-3.5V4c0-1.93,1.57-3.5,3.5-3.5h24c1.93,0,3.5,1.57,3.5,3.5v24      c0,1.93-1.57,3.5-3.5,3.5H4z" fill="#FFFFFF"/><path d="M28,1c1.654,0,3,1.346,3,3v24c0,1.654-1.346,3-3,3H4c-1.654,0-3-1.346-3-3V4c0-1.654,1.346-3,3-3H28 M28,0H4      C1.8,0,0,1.8,0,4v24c0,2.2,1.8,4,4,4h24c2.2,0,4-1.8,4-4V4C32,1.8,30.2,0,28,0L28,0z"/></g><path d="M27.438,29.438H4.563c-1.1,0-2-0.9-2-2V4.562c0-1.1,0.9-2,2-2h22.875c1.1,0,2,0.9,2,2v22.875     C29.438,28.538,28.538,29.438,27.438,29.438z"/></g><path d="M13.013,19.129c-0.956,0-1.733-0.777-1.733-1.732c0-0.955,0.777-1.732,1.733-1.732    c0.955,0,1.732,0.777,1.732,1.732C14.745,18.352,13.968,19.129,13.013,19.129z M25.549,17.922c0.026,0.198,0.04,0.393,0.04,0.583    c0,3.602-4.309,6.533-9.607,6.533s-9.607-2.931-9.607-6.533c0-0.197,0.015-0.401,0.043-0.608c-0.679-0.501-1.08-1.286-1.08-2.131    c0-1.465,1.192-2.656,2.656-2.656c0.571,0,1.127,0.186,1.584,0.526c1.647-1.001,3.746-1.585,5.953-1.655l1.692-4.809l4.055,0.969    c0.382-0.723,1.129-1.18,1.958-1.18c1.222,0,2.217,0.995,2.217,2.217c0,1.222-0.995,2.217-2.217,2.217    c-1.15,0-2.1-0.882-2.207-2.005l-2.987-0.714l-1.17,3.324c2.05,0.13,3.995,0.708,5.531,1.647c0.46-0.348,1.021-0.538,1.6-0.538    c1.465,0,2.656,1.192,2.656,2.656C26.661,16.628,26.249,17.422,25.549,17.922z M6.611,15.766c0,0.266,0.078,0.524,0.221,0.745    c0.35-0.742,0.898-1.441,1.611-2.055c-0.143-0.049-0.294-0.074-0.448-0.074C7.232,14.382,6.611,15.003,6.611,15.766z     M24.316,18.505c0-2.901-3.739-5.26-8.334-5.26s-8.334,2.36-8.334,5.26c0,2.9,3.739,5.26,8.334,5.26    C20.577,23.765,24.316,21.405,24.316,18.505z M23.532,14.466c0.717,0.62,1.267,1.328,1.614,2.078    c0.157-0.228,0.243-0.498,0.243-0.778c0-0.763-0.621-1.384-1.383-1.384C23.842,14.382,23.682,14.411,23.532,14.466z M22.294,9.179    c0,0.521,0.424,0.944,0.944,0.944s0.944-0.424,0.944-0.944c0-0.521-0.424-0.944-0.944-0.944S22.294,8.659,22.294,9.179z     M19.181,20.485c-0.172,0-0.334,0.068-0.45,0.186c-0.034,0.034-0.867,0.817-2.766,0.817c-1.876,0-2.632-0.784-2.634-0.786    c-0.121-0.139-0.296-0.218-0.48-0.218c-0.151,0-0.298,0.054-0.413,0.152c-0.129,0.11-0.208,0.265-0.221,0.434    c-0.013,0.17,0.041,0.334,0.151,0.463c0.03,0.035,0.307,0.349,0.894,0.648c0.753,0.384,1.662,0.579,2.703,0.579    c1.034,0,1.955-0.192,2.736-0.569c0.606-0.293,0.907-0.598,0.94-0.632c0.239-0.25,0.232-0.652-0.017-0.895    C19.505,20.549,19.347,20.485,19.181,20.485z M19.161,15.665c-0.956,0-1.733,0.777-1.733,1.732c0,0.955,0.777,1.732,1.733,1.732    c0.955,0,1.732-0.777,1.732-1.732C20.893,16.442,20.116,15.665,19.161,15.665z" fill="#FFFFFF"/></g></g></svg>