<?xml version="1.0" ?><svg enable-background="new 0 0 32 32" version="1.1" viewBox="0 0 32 32" xml:space="preserve" xmlns="http://www.w3.org/2000/svg" xmlns:xlink="http://www.w3.org/1999/xlink"><g id="Outline_Color"><g><g><g><path d="M4,31.5c-1.93,0-3.5-1.57-3.5-3.5V4c0-1.93,1.57-3.5,3.5-3.5h24c1.93,0,3.5,1.57,3.5,3.5v24      c0,1.93-1.57,3.5-3.5,3.5H4z" fill="#FFFFFF"/><path d="M28,1c1.654,0,3,1.346,3,3v24c0,1.654-1.346,3-3,3H4c-1.654,0-3-1.346-3-3V4c0-1.654,1.346-3,3-3H28 M28,0H4      C1.8,0,0,1.8,0,4v24c0,2.2,1.8,4,4,4h24c2.2,0,4-1.8,4-4V4C32,1.8,30.2,0,28,0L28,0z"/></g><path d="M27.438,29.438H4.563c-1.1,0-2-0.9-2-2V4.563c0-1.1,0.9-2,2-2h22.875c1.1,0,2,0.9,2,2v22.875     C29.438,28.538,28.538,29.438,27.438,29.438z"/></g><g><polygon fill="#FFFFFF" points="15.474,8.898 24.417,7.583 24.417,15.474 15.474,15.474    "/><polygon fill="#FFFFFF" points="7.583,10.057 14.422,9.054 14.422,15.474 7.583,15.474    "/><polygon fill="#FFFFFF" points="15.474,23.102 24.417,24.417 24.417,16.526 15.474,16.526    "/><polygon fill="#FFFFFF" points="7.583,21.943 14.422,22.946 14.422,16.526 7.583,16.526    "/></g></g></g></svg>