<?xml version="1.0" ?><svg enable-background="new 0 0 32 32" version="1.1" viewBox="0 0 32 32" xml:space="preserve" xmlns="http://www.w3.org/2000/svg" xmlns:xlink="http://www.w3.org/1999/xlink"><g id="Outline_Color"><g><g><g><path d="M4,31.5c-1.93,0-3.5-1.57-3.5-3.5V4c0-1.93,1.57-3.5,3.5-3.5h24c1.93,0,3.5,1.57,3.5,3.5v24      c0,1.93-1.57,3.5-3.5,3.5H4z" fill="#FFFFFF"/><path d="M28,1c1.654,0,3,1.346,3,3v24c0,1.654-1.346,3-3,3H4c-1.654,0-3-1.346-3-3V4c0-1.654,1.346-3,3-3H28 M28,0H4      C1.8,0,0,1.8,0,4v24c0,2.2,1.8,4,4,4h24c2.2,0,4-1.8,4-4V4C32,1.8,30.2,0,28,0L28,0z"/></g><path d="M27.438,29.438H4.563c-1.1,0-2-0.9-2-2V4.563c0-1.1,0.9-2,2-2h22.875c1.1,0,2,0.9,2,2v22.875     C29.438,28.538,28.538,29.438,27.438,29.438z"/></g><g><path clip-rule="evenodd" d="M16.112,26.089c1.578,0,7.834-7.094,7.834-11.851     c0-4.553-3.557-8.326-7.834-8.326c-4.5,0-8.058,3.773-8.058,8.326C8.054,18.994,14.31,26.089,16.112,26.089z" fill="#FFFFFF" fill-rule="evenodd"/><path clip-rule="evenodd" d="M16.138,18.565c2.533,0,4.698-2.144,4.698-4.651     c0-2.781-2.165-4.925-4.698-4.925c-2.809,0-4.975,2.144-4.975,4.925C11.164,16.421,13.329,18.565,16.138,18.565z" fill="#FFFFFF" fill-rule="evenodd"/><path clip-rule="evenodd" d="M16.138,18.565c2.533,0,4.698-2.144,4.698-4.651     c0-2.781-2.165-4.925-4.698-4.925c-2.809,0-4.975,2.144-4.975,4.925C11.164,16.421,13.329,18.565,16.138,18.565z" fill-rule="evenodd"/><ellipse clip-rule="evenodd" cx="14.1" cy="10.87" fill="#FFFFFF" fill-rule="evenodd" rx="1.9" ry="1.881"/></g></g></g></svg>