<?xml version="1.0" ?><svg enable-background="new 0 0 32 32" version="1.1" viewBox="0 0 32 32" xml:space="preserve" xmlns="http://www.w3.org/2000/svg" xmlns:xlink="http://www.w3.org/1999/xlink"><g id="Outline_Color"><g><g><g><path d="M4,31.5c-1.93,0-3.5-1.57-3.5-3.5V4c0-1.93,1.57-3.5,3.5-3.5h24c1.93,0,3.5,1.57,3.5,3.5v24      c0,1.93-1.57,3.5-3.5,3.5H4z" fill="#FFFFFF"/><path d="M28,1c1.654,0,3,1.346,3,3v24c0,1.654-1.346,3-3,3H4c-1.654,0-3-1.346-3-3V4c0-1.654,1.346-3,3-3H28 M28,0H4      C1.8,0,0,1.8,0,4v24c0,2.2,1.8,4,4,4h24c2.2,0,4-1.8,4-4V4C32,1.8,30.2,0,28,0L28,0z"/></g><path d="M27.437,29.438H4.562c-1.1,0-2-0.9-2-2V4.562c0-1.1,0.9-2,2-2h22.875c1.1,0,2,0.9,2,2v22.875     C29.437,28.538,28.538,29.438,27.437,29.438z"/></g><path d="M7.659,13.357c0,0,1.521-1.199,2.028-0.6c0.507,0.6,2.442,7.836,3.088,9.171    c0.564,1.171,2.119,2.718,3.824,1.613c1.705-1.105,7.373-5.945,8.388-11.66c1.014-5.714-6.821-4.517-7.651,0.461    c2.075-1.245,3.182,0.506,2.12,2.489c-1.06,1.981-2.028,3.273-2.535,3.273c-0.506,0-0.895-1.326-1.475-3.643    c-0.599-2.395-0.596-6.71-3.087-6.221c-2.35,0.461-5.438,4.149-5.438,4.149L7.659,13.357z" fill="#FFFFFF"/></g></g></svg>