<?xml version="1.0" encoding="utf-8"?>
<!-- Generator: Adobe Illustrator 16.2.0, SVG Export Plug-In . SVG Version: 6.00 Build 0)  -->
<!DOCTYPE svg PUBLIC "-//W3C//DTD SVG 1.1//EN" "http://www.w3.org/Graphics/SVG/1.1/DTD/svg11.dtd">
<svg version="1.1" id="Layer_3" xmlns="http://www.w3.org/2000/svg" xmlns:xlink="http://www.w3.org/1999/xlink" x="0px" y="0px"
	 width="256px" height="256px" viewBox="0 0 256 256" enable-background="new 0 0 256 256" xml:space="preserve">
<path d="M256.843,34.985c1.07-22.232-16.787-35.122-32.861-34.62L107.41,0.466H32.671C16.597-0.036-1.262,12.854-0.191,35.086
	L-0.25,227.604c1.423,14.137,14.882,29.801,35.897,28.295h89.98v-0.018l95.378-0.085c21.014,1.508,34.472-14.156,35.896-28.293
	L256.843,34.985z"/>
<path fill="#FFFFFF" d="M222.37,8.448l-72.058,0.008c-0.664-0.064-1.354-0.097-2.058-0.096C38.671,8.445,35.708,8.448,35.647,8.448
	C19.217,7.207,7.251,18.382,7.787,34.435L7.697,221.309c-0.625,13.571,8.95,29.013,29.043,27.062l95.634,0.266c0,0-0.04,0.126,0,0
	l87.6-0.266c21.252,1.685,29.815-14.022,29.041-27.15l0.059-185.454C250.146,19.801,238.446,7.473,222.37,8.448z"/>
<path d="M220.554,20.954L63.518,21.129l-0.009-0.234L36.66,20.954c-8.275-0.294-16.431,6.8-16.252,16.26l0.059,182.527
	c0,0,0.036,1.434,0.061,1.656c0.714,6.268,6.072,13.659,15.418,14.015l36.017,0.057l-0.002-0.057h149.308
	c9.347-0.355,14.705-7.747,15.417-14.015c0.029-0.223,0.062-1.656,0.062-1.656l0.059-182.527
	C236.983,27.753,228.829,20.659,220.554,20.954z"/>
<path id="path2442" fill="#FFFFFF" d="M126.405,181.212h11.282c0,0,3.405-0.372,5.148-2.235c1.602-1.711,1.553-4.922,1.553-4.922
	s-0.223-15.037,6.802-17.251c6.929-2.182,15.822,14.533,25.25,20.959c7.129,4.862,12.548,3.798,12.548,3.798l25.208-0.349
	c0,0,13.184-0.808,6.935-11.105c-0.513-0.842-3.644-7.618-18.746-21.538c-15.809-14.572-13.688-12.215,5.354-37.42
	c11.596-15.35,16.229-24.72,14.781-28.734c-1.38-3.824-9.911-2.814-9.911-2.814l-28.381,0.174c0,0-2.104-0.284-3.665,0.642
	c-1.528,0.907-2.505,3.024-2.505,3.024s-4.493,11.877-10.481,21.981c-12.64,21.314-17.695,22.441-19.76,21.116
	c-4.81-3.084-3.606-12.391-3.606-19.003c0-20.657,3.156-29.27-6.143-31.499c-3.087-0.74-5.357-1.229-13.248-1.309
	c-10.128-0.103-18.698,0.031-23.552,2.393c-3.229,1.57-5.72,5.07-4.203,5.27c1.877,0.248,6.124,1.139,8.375,4.183
	c2.91,3.931,2.809,12.757,2.809,12.757s1.671,24.316-3.903,27.336c-3.826,2.071-9.074-2.158-20.342-21.496
	c-5.773-9.905-10.132-20.856-10.132-20.856s-0.84-2.045-2.339-3.14c-1.818-1.327-4.359-1.748-4.359-1.748l-26.972,0.174
	c0,0-4.049,0.112-5.536,1.862c-1.324,1.556-0.106,4.771-0.106,4.771s21.114,49.067,45.026,73.792
	C101.511,182.7,126.405,181.212,126.405,181.212"/>
</svg>
