<?xml version="1.0" ?><svg enable-background="new 0 0 32 32" version="1.1" viewBox="0 0 32 32" xml:space="preserve" xmlns="http://www.w3.org/2000/svg" xmlns:xlink="http://www.w3.org/1999/xlink"><g id="Outline_Color"><g><g><g><path d="M4,31.5c-1.93,0-3.5-1.57-3.5-3.5V4c0-1.93,1.57-3.5,3.5-3.5h24c1.93,0,3.5,1.57,3.5,3.5v24      c0,1.93-1.57,3.5-3.5,3.5H4z" fill="#FFFFFF"/><path d="M28,1c1.654,0,3,1.346,3,3v24c0,1.654-1.346,3-3,3H4c-1.654,0-3-1.346-3-3V4c0-1.654,1.346-3,3-3H28 M28,0H4      C1.8,0,0,1.8,0,4v24c0,2.2,1.8,4,4,4h24c2.2,0,4-1.8,4-4V4C32,1.8,30.2,0,28,0L28,0z"/></g><path d="M27.437,29.438H4.562c-1.1,0-2-0.9-2-2V4.562c0-1.1,0.9-2,2-2h22.875c1.1,0,2,0.9,2,2v22.875     C29.437,28.538,28.537,29.438,27.437,29.438z"/></g><g><path d="M24.577,19.426V16c0-0.948-0.778-1.726-1.725-1.726h-0.85c-0.486,0-0.875-0.389-0.875-0.851     c0-3.304-2.697-6.001-6.002-6.001H12.55c-2.818,0-5.127,2.308-5.127,5.127v6.876c0,2.818,2.308,5.151,5.127,5.151h6.876     C22.244,24.577,24.577,22.244,24.577,19.426L24.577,19.426z M12.549,18.551h6.002c0.486,0,0.875,0.389,0.875,0.875     c0,0.462-0.388,0.85-0.875,0.85h-6.002c-0.462,0-0.85-0.388-0.85-0.85C11.699,18.94,12.088,18.551,12.549,18.551L12.549,18.551z      M16.656,12.55c0,0.486-0.364,0.875-0.85,0.875h-3.256c-0.462,0-0.85-0.389-0.85-0.875c0-0.462,0.388-0.85,0.85-0.85h3.256     C16.292,11.699,16.656,12.088,16.656,12.55L16.656,12.55z" fill="#FFFFFF"/></g></g></g></svg>