<?xml version="1.0" ?><svg enable-background="new 0 0 32 32" version="1.1" viewBox="0 0 32 32" xml:space="preserve" xmlns="http://www.w3.org/2000/svg" xmlns:xlink="http://www.w3.org/1999/xlink"><g id="Outline_Color"><g><g><g><path d="M4,31.5c-1.93,0-3.5-1.57-3.5-3.5V4c0-1.93,1.57-3.5,3.5-3.5h24c1.93,0,3.5,1.57,3.5,3.5v24      c0,1.93-1.57,3.5-3.5,3.5H4z" fill="#FFFFFF"/><path d="M28,1c1.654,0,3,1.346,3,3v24c0,1.654-1.346,3-3,3H4c-1.654,0-3-1.346-3-3V4c0-1.654,1.346-3,3-3H28 M28,0H4      C1.8,0,0,1.8,0,4v24c0,2.2,1.8,4,4,4h24c2.2,0,4-1.8,4-4V4C32,1.8,30.2,0,28,0L28,0z"/></g><path d="M27.438,29.437H4.562c-1.1,0-2-0.9-2-2V4.562c0-1.1,0.9-2,2-2h22.875c1.1,0,2,0.9,2,2v22.875     C29.438,28.537,28.538,29.437,27.438,29.437z"/></g><path d="M16.184,7.178v4.411h4.411v2.757h-4.411v4.411c0,1.024,0.098,1.847,0.206,2.138    c0.109,0.29,0.31,0.522,0.606,0.697c0.392,0.235,0.838,0.353,1.342,0.353c0.895,0,1.936-0.304,2.809-0.982v2.757    c-0.735,0.46-1.578,0.745-2.191,0.888c-0.612,0.142-1.274,0.214-1.986,0.214c-0.744,0-1.462-0.082-2.143-0.307    c-0.621-0.204-0.968-0.43-1.407-0.807c-0.438-0.378-0.651-0.758-0.82-1.184c-0.169-0.424-0.276-1.306-0.276-2.114v-6.065h-2.205    v-2.757c0.706-0.052,1.29-0.251,1.783-0.67c0.497-0.422,0.894-0.928,1.192-1.518c0.3-0.591,0.333-1.314,0.333-2.222H16.184z" fill="#FFFFFF"/></g></g></svg>